<svg width="241" height="240" viewBox="0 0 241 240" fill="none" xmlns="http://www.w3.org/2000/svg">
<g clip-path="url(#clip0)">
<path d="M158.738 63.4525H119.238C118.374 63.4551 117.52 63.2604 116.742 62.8833C115.963 62.5062 115.282 61.9565 114.748 61.2761C114.204 60.5894 113.825 59.7876 113.638 58.932C113.451 58.0764 113.462 57.1894 113.67 56.3386C117.31 41.0903 117.31 25.1992 113.669 9.95093C113.462 9.10015 113.451 8.21324 113.638 7.35768C113.825 6.50212 114.204 5.70045 114.748 5.01367C115.281 4.33327 115.963 3.78359 116.742 3.40645C117.52 3.02932 118.374 2.83468 119.238 2.83734H158.738C160.102 2.84126 161.42 3.32914 162.458 4.21408C163.495 5.09903 164.185 6.32358 164.404 7.66963C167.004 24.5537 167.004 41.7361 164.404 58.6202C164.185 59.9662 163.495 61.1908 162.458 62.0757C161.42 62.9607 160.102 63.4485 158.738 63.4525Z" fill="#E6E6E6"/>
<path d="M119.238 5.80943C118.823 5.80804 118.413 5.90138 118.039 6.08236C117.666 6.26334 117.338 6.52718 117.081 6.85382C116.817 7.18849 116.633 7.57898 116.543 7.99559C116.452 8.4122 116.458 8.84395 116.56 9.25799C120.309 24.9619 120.309 41.3279 116.56 57.0318C116.458 57.4458 116.452 57.8774 116.543 58.294C116.633 58.7105 116.817 59.1009 117.081 59.4355L117.082 59.4358C117.338 59.7625 117.666 60.0264 118.039 60.2074C118.413 60.3884 118.823 60.4818 119.238 60.4804H158.738C159.393 60.4806 160.027 60.2484 160.527 59.825C161.026 59.4017 161.359 58.8147 161.467 58.1686C164.02 41.5839 164.02 24.706 161.467 8.1212C161.359 7.47513 161.026 6.88816 160.527 6.46481C160.027 6.04145 159.393 5.8092 158.738 5.80943L119.238 5.80943Z" fill="white"/>
<path d="M150.118 20.1005H129.391C128.603 20.0997 127.847 19.7863 127.29 19.2291C126.733 18.672 126.42 17.9165 126.419 17.1286V15.9672C126.42 15.1792 126.733 14.4238 127.29 13.8666C127.847 13.3095 128.603 12.9961 129.391 12.9952H150.118C150.906 12.9961 151.662 13.3095 152.219 13.8666C152.776 14.4238 153.09 15.1792 153.09 15.9672V17.1286C153.09 17.9165 152.776 18.672 152.219 19.2291C151.662 19.7863 150.906 20.0997 150.118 20.1005Z" fill="#E6E6E6"/>
<path d="M150.118 34.7755H129.391C128.603 34.7747 127.847 34.4613 127.29 33.9041C126.733 33.347 126.42 32.5915 126.419 31.8036V30.6422C126.42 29.8542 126.733 29.0988 127.29 28.5416C127.847 27.9845 128.603 27.6711 129.391 27.6702H150.118C150.906 27.6711 151.662 27.9845 152.219 28.5416C152.776 29.0988 153.09 29.8542 153.09 30.6422V31.8036C153.09 32.5915 152.776 33.347 152.219 33.9041C151.662 34.4613 150.906 34.7747 150.118 34.7755Z" fill="#E6E6E6"/>
<path d="M150.118 49.4506H129.391C128.603 49.4497 127.847 49.1363 127.29 48.5791C126.733 48.022 126.42 47.2665 126.419 46.4786V45.3172C126.42 44.5293 126.733 43.7738 127.29 43.2167C127.847 42.6595 128.603 42.3461 129.391 42.3452H150.118C150.906 42.3461 151.662 42.6595 152.219 43.2167C152.776 43.7738 153.09 44.5293 153.09 45.3172V46.4786C153.09 47.2665 152.776 48.022 152.219 48.5791C151.662 49.1363 150.906 49.4497 150.118 49.4506Z" fill="#E6E6E6"/>
<path d="M233.04 101.099H193.54C192.676 101.101 191.822 100.907 191.044 100.53C190.265 100.152 189.584 99.6028 189.05 98.9225C188.506 98.2357 188.127 97.434 187.94 96.5784C187.753 95.7227 187.764 94.8358 187.972 93.985C191.612 78.7367 191.612 62.8455 187.971 47.5973C187.764 46.7465 187.753 45.8596 187.94 45.004C188.127 44.1485 188.506 43.3468 189.05 42.66C189.583 41.9796 190.265 41.4299 191.044 41.0528C191.822 40.6757 192.676 40.481 193.54 40.4837H233.04C234.404 40.4876 235.722 40.9755 236.76 41.8604C237.797 42.7454 238.487 43.9699 238.706 45.316C241.306 62.2 241.306 79.3825 238.706 96.2665C238.487 97.6125 237.797 98.8371 236.76 99.7221C235.722 100.607 234.404 101.095 233.04 101.099Z" fill="#E6E6E6"/>
<path d="M193.54 43.4558C193.125 43.4544 192.715 43.5477 192.341 43.7287C191.967 43.9097 191.64 44.1735 191.383 44.5002C191.119 44.8348 190.935 45.2253 190.845 45.6419C190.754 46.0585 190.76 46.4903 190.861 46.9043C194.611 62.6082 194.611 78.9742 190.862 94.6782C190.76 95.0921 190.754 95.5238 190.845 95.9403C190.935 96.3568 191.119 96.7473 191.383 97.0819L191.384 97.0821C191.64 97.4088 191.967 97.6727 192.341 97.8537C192.715 98.0348 193.125 98.1281 193.54 98.1267H233.04C233.695 98.1269 234.329 97.8947 234.828 97.4714C235.328 97.048 235.661 96.461 235.769 95.8149C238.322 79.2302 238.322 62.3523 235.769 45.7675C235.661 45.1215 235.328 44.5345 234.828 44.1111C234.329 43.6878 233.695 43.4555 233.04 43.4557L193.54 43.4558Z" fill="white"/>
<path d="M154.28 143.946H114.78C113.878 143.949 112.987 143.746 112.175 143.352C111.363 142.959 110.652 142.385 110.095 141.676C109.528 140.959 109.133 140.123 108.938 139.231C108.743 138.339 108.754 137.414 108.971 136.527C112.602 121.317 112.602 105.465 108.97 90.2549C108.754 89.3677 108.743 88.4429 108.938 87.5507C109.133 86.6586 109.528 85.8226 110.095 85.1065C110.652 84.3966 111.363 83.8232 112.175 83.4297C112.987 83.0362 113.878 82.8331 114.78 82.8358H154.28C155.703 82.8401 157.078 83.3492 158.16 84.2726C159.243 85.196 159.962 86.4737 160.191 87.878C162.794 104.787 162.794 121.995 160.191 138.904C159.962 140.308 159.243 141.586 158.16 142.509C157.078 143.433 155.703 143.942 154.28 143.946Z" fill="#F2F2F2"/>
<path d="M224.42 65.177H203.693C202.905 65.1762 202.149 64.8628 201.592 64.3056C201.035 63.7485 200.722 62.993 200.721 62.2051V61.0437C200.722 60.2557 201.035 59.5003 201.592 58.9431C202.149 58.386 202.905 58.0726 203.693 58.0717H224.42C225.208 58.0726 225.964 58.386 226.521 58.9431C227.078 59.5003 227.391 60.2557 227.392 61.0437V62.2051C227.391 62.9931 227.078 63.7485 226.521 64.3056C225.964 64.8628 225.208 65.1762 224.42 65.177Z" fill="#E6E6E6"/>
<path d="M224.42 79.8521H203.693C202.905 79.8512 202.149 79.5378 201.592 78.9807C201.035 78.4235 200.722 77.6681 200.721 76.8801V75.7187C200.722 74.9308 201.035 74.1753 201.592 73.6182C202.149 73.061 202.905 72.7476 203.693 72.7468H224.42C225.208 72.7476 225.964 73.061 226.521 73.6182C227.078 74.1753 227.391 74.9308 227.392 75.7187V76.8801C227.391 77.6681 227.078 78.4235 226.521 78.9807C225.964 79.5378 225.208 79.8512 224.42 79.8521Z" fill="#E6E6E6"/>
<path d="M134.641 124.58C140.933 124.58 146.034 119.479 146.034 113.187C146.034 106.895 140.933 101.794 134.641 101.794C128.348 101.794 123.248 106.895 123.248 113.187C123.248 119.479 128.348 124.58 134.641 124.58Z" fill="white"/>
<path d="M140.089 111.701H136.127V107.738C136.127 107.344 135.97 106.966 135.691 106.687C135.413 106.408 135.035 106.252 134.641 106.252C134.247 106.252 133.869 106.408 133.59 106.687C133.311 106.966 133.155 107.344 133.155 107.738V111.701H129.192C128.798 111.701 128.42 111.857 128.141 112.136C127.862 112.415 127.706 112.793 127.706 113.187C127.706 113.581 127.862 113.959 128.141 114.237C128.42 114.516 128.798 114.673 129.192 114.673H133.155V118.635C133.155 119.03 133.311 119.408 133.59 119.686C133.869 119.965 134.247 120.122 134.641 120.122C135.035 120.122 135.413 119.965 135.691 119.686C135.97 119.408 136.127 119.03 136.127 118.635V114.673H140.089C140.484 114.673 140.862 114.516 141.14 114.237C141.419 113.959 141.576 113.581 141.576 113.187C141.576 112.793 141.419 112.415 141.14 112.136C140.862 111.857 140.484 111.701 140.089 111.701Z" fill="#E6E6E6"/>
<path d="M149.006 8.42089H128.201C127.61 8.42022 127.044 8.18516 126.626 7.76728C126.208 7.34939 125.973 6.78281 125.972 6.19183V2.22906C125.973 1.63808 126.208 1.0715 126.626 0.653611C127.044 0.235726 127.61 0.000666022 128.201 0H149.006C149.597 0.000666022 150.163 0.235726 150.581 0.653611C150.999 1.0715 151.234 1.63808 151.235 2.22906V6.19183C151.234 6.78281 150.999 7.34939 150.581 7.76728C150.163 8.18516 149.597 8.42022 149.006 8.42089Z" fill="#CCCCCC"/>
<path d="M224.298 46.5626H203.494C202.903 46.5619 202.336 46.3268 201.918 45.9089C201.5 45.491 201.265 44.9245 201.265 44.3335V40.3707C201.265 39.7797 201.5 39.2132 201.918 38.7953C202.336 38.3774 202.903 38.1423 203.494 38.1417H224.298C224.889 38.1423 225.456 38.3774 225.874 38.7953C226.292 39.2132 226.527 39.7797 226.527 40.3707V44.3335C226.527 44.9245 226.292 45.491 225.874 45.9089C225.456 46.3268 224.889 46.5619 224.298 46.5626Z" fill="#CCCCCC"/>
<path d="M43.8857 233.338H49.9586L51.8573 209.914H43.8847L43.8857 233.338Z" fill="#FFB8B8"/>
<path d="M42.3369 231.356L54.2965 231.355H54.297C55.2978 231.355 56.2889 231.552 57.2136 231.935C58.1383 232.318 58.9785 232.88 59.6863 233.587C60.394 234.295 60.9554 235.135 61.3384 236.06C61.7215 236.985 61.9186 237.976 61.9186 238.977V239.224L42.3373 239.225L42.3369 231.356Z" fill="#2F2E41"/>
<path d="M11.1928 233.338H17.2658L20.1551 209.914H11.1918L11.1928 233.338Z" fill="#FFB8B8"/>
<path d="M9.64404 231.356L21.6036 231.355H21.6041C22.605 231.355 23.5961 231.552 24.5208 231.935C25.4455 232.318 26.2857 232.88 26.9934 233.587C27.7012 234.295 28.2626 235.135 28.6456 236.06C29.0286 236.985 29.2257 237.976 29.2257 238.977V239.224L9.64442 239.225L9.64404 231.356Z" fill="#2F2E41"/>
<path d="M12.2704 225.939C11.6509 225.939 11.0541 225.705 10.5986 225.286C10.3541 225.063 10.1571 224.792 10.0196 224.491C9.88205 224.19 9.80677 223.864 9.79824 223.534L7.36279 136.247L41.9435 144.892L52.613 176.9C53.9889 181.018 54.5845 185.356 54.3692 189.692L53.0444 220.719C53.0142 221.354 52.7403 221.954 52.2796 222.393C51.8189 222.832 51.2068 223.076 50.5705 223.076H44.7705C44.1718 223.074 43.5941 222.855 43.1433 222.461C42.6925 222.067 42.3988 221.524 42.3161 220.931L38.1706 186.682C37.8084 184.01 36.8737 181.448 35.4305 179.171L27.2724 166.254C27.2178 166.168 27.1379 166.1 27.0437 166.061C26.9494 166.022 26.8454 166.013 26.7457 166.035C26.6461 166.058 26.5558 166.11 26.4871 166.186C26.4185 166.261 26.3748 166.356 26.3621 166.457L19.9599 223.466C19.8912 224.044 19.6207 224.579 19.196 224.978C18.7713 225.376 18.2197 225.612 17.6383 225.644L12.4114 225.934C12.3643 225.937 12.3174 225.939 12.2704 225.939Z" fill="#2F2E41"/>
<path d="M36.1888 79.7345C42.908 79.7345 48.355 74.2875 48.355 67.5683C48.355 60.849 42.908 55.402 36.1888 55.402C29.4696 55.402 24.0226 60.849 24.0226 67.5683C24.0226 74.2875 29.4696 79.7345 36.1888 79.7345Z" fill="#FFB8B8"/>
<path d="M41.7778 148.442C41.5685 148.441 41.36 148.415 41.1572 148.363H41.1568L6.84701 139.566C6.23358 139.408 5.70365 139.022 5.36618 138.487C5.02871 137.951 4.90933 137.306 5.03262 136.685L12.9122 94.2382C13.4031 91.7846 14.4821 89.4868 16.0567 87.5421C17.6313 85.5974 19.6543 84.0639 21.9521 83.0733C24.191 82.0824 26.6394 81.6579 29.0812 81.8371C31.5231 82.0164 33.8832 82.794 35.9534 84.1013C36.4337 84.4009 36.9176 84.7277 37.3912 85.0726C39.2977 86.479 40.8525 88.308 41.9335 90.4161C43.0146 92.5242 43.5926 94.8541 43.6221 97.2231L44.2486 145.93C44.2528 146.257 44.1921 146.583 44.0699 146.887C43.9478 147.19 43.7666 147.467 43.5368 147.701C43.3071 147.934 43.0334 148.12 42.7315 148.247C42.4295 148.374 42.1054 148.44 41.7778 148.442Z" fill="#651DFF"/>
<path d="M10.3771 148.941C9.96784 148.339 9.6956 147.654 9.57957 146.935C9.46353 146.216 9.50655 145.48 9.70556 144.78C9.90458 144.079 10.2548 143.431 10.7314 142.881C11.2081 142.33 11.7997 141.891 12.4645 141.594L10.9385 123.958L19.0255 128.341L19.2348 144.416C19.66 145.566 19.6485 146.832 19.2027 147.974C18.7568 149.116 17.9075 150.055 16.8157 150.613C15.7238 151.171 14.4654 151.308 13.2787 151C12.092 150.692 11.0596 149.959 10.3771 148.941H10.3771Z" fill="#FFB8B8"/>
<path d="M13.2664 139.261C13.0382 139.261 12.8109 139.232 12.5899 139.176C12.1144 139.054 11.6805 138.807 11.3342 138.459C10.9879 138.112 10.7419 137.677 10.6224 137.201L6.64812 121.408C5.25923 115.891 5.92132 110.059 8.51124 104.994L16.8374 88.7064C17.3638 86.7563 18.6355 85.0912 20.3783 84.0702C22.1212 83.0491 24.1955 82.754 26.154 83.2484C27.1301 83.4949 28.0476 83.9327 28.8533 84.5365C29.6589 85.1403 30.3367 85.898 30.8473 86.7657C31.3684 87.6458 31.7092 88.6208 31.8499 89.6339C31.9906 90.647 31.9283 91.678 31.6666 92.6668L19.8142 119.171L19.955 135.039C19.9586 135.599 19.7903 136.147 19.4728 136.608C19.1552 137.069 18.7038 137.421 18.1794 137.618L14.213 139.091C13.9102 139.203 13.5896 139.261 13.2664 139.261Z" fill="#651DFF"/>
<path d="M70.0013 142.454C69.2778 142.371 68.5812 142.131 67.9606 141.75C67.3401 141.369 66.8106 140.857 66.4095 140.249C66.0084 139.641 65.7454 138.953 65.6391 138.232C65.5329 137.512 65.5858 136.777 65.7943 136.079L51.4325 125.732L60.03 122.462L72.3501 132.789C73.499 133.217 74.4511 134.051 75.0258 135.134C75.6006 136.217 75.7581 137.473 75.4686 138.665C75.1791 139.856 74.4626 140.9 73.4549 141.598C72.4472 142.297 71.2184 142.601 70.0012 142.454H70.0013Z" fill="#FFB8B8"/>
<path d="M62.4829 134.898C62.0594 134.898 61.6419 134.799 61.263 134.61L46.7003 127.32C41.6137 124.774 37.6248 120.467 35.4754 115.201L28.5617 98.2648C27.4271 96.5936 26.9947 94.5435 27.3578 92.5564C27.7208 90.5694 28.8501 88.8046 30.5023 87.6425C31.3278 87.062 32.2606 86.6517 33.2463 86.4354C34.232 86.2191 35.2509 86.2011 36.2436 86.3826C37.2479 86.5632 38.2064 86.9413 39.0636 87.495C39.9208 88.0487 40.6595 88.7671 41.2371 89.6084L53.5935 115.881L65.7125 126.126C66.1393 126.489 66.4445 126.973 66.5868 127.515C66.7292 128.056 66.7018 128.628 66.5084 129.154L65.0374 133.121C64.8453 133.641 64.4983 134.09 64.0433 134.407C63.5858 134.727 63.0411 134.898 62.4829 134.898Z" fill="#651DFF"/>
<path d="M33.6341 79.9207C34.2805 80.2036 35.6043 75.0528 35.0113 74.0226C34.1295 72.4905 34.1816 72.5015 33.5962 71.4879C33.0108 70.4743 32.8798 69.0869 33.6379 68.1951C34.396 67.3032 36.1503 67.4215 36.4962 68.5397C36.2737 66.4158 38.3745 64.7084 40.4555 64.2287C42.5365 63.7489 44.7316 64.0468 46.824 63.6198C49.2524 63.1243 51.7791 61.0887 50.8102 58.4183C50.6439 57.9737 50.395 57.5646 50.0765 57.2126C48.9571 55.954 47.3912 55.4165 45.8602 54.8969C42.6751 53.8158 39.4028 52.7211 36.0413 52.8405C33.2717 52.9853 30.6043 53.9344 28.3656 55.5715C26.1269 57.2087 24.414 59.463 23.4366 62.0585C23.2049 62.7078 23.0255 63.3746 22.8999 64.0524C21.7461 70.2563 25.3487 76.3756 31.2001 78.738L33.6341 79.9207Z" fill="#2F2E41"/>
<path opacity="0.2" d="M19.269 135.399L19.5449 119.088L28.1852 101.716L21.2504 119.548L19.269 135.399Z" fill="black"/>
<path d="M97.6215 176.335L61.145 161.179C60.3455 160.85 59.6316 160.342 59.0576 159.696C58.4837 159.049 58.0649 158.28 57.8331 157.446C57.5947 156.604 57.5518 155.718 57.7076 154.856C57.8633 153.994 58.2137 153.179 58.7319 152.473C67.9443 139.789 74.0414 125.114 76.5299 109.636C76.6647 108.77 76.995 107.947 77.4958 107.229C77.9966 106.511 78.6547 105.916 79.42 105.49C80.1739 105.067 81.0146 104.821 81.8779 104.771C82.7412 104.721 83.6045 104.869 84.4021 105.203L120.879 120.359C122.136 120.886 123.167 121.842 123.785 123.057C124.404 124.273 124.571 125.668 124.257 126.995C120.18 143.584 113.587 159.452 104.708 174.046C103.989 175.205 102.882 176.071 101.585 176.49C100.287 176.909 98.8824 176.854 97.6215 176.335Z" fill="#E6E6E6"/>
<path d="M83.2617 107.948C82.8788 107.787 82.4642 107.716 82.0496 107.74C81.635 107.764 81.2312 107.882 80.8691 108.085C80.4968 108.293 80.1768 108.582 79.9335 108.932C79.6901 109.282 79.5298 109.683 79.4647 110.105C76.9018 126.045 70.6225 141.159 61.1348 154.222C60.8822 154.565 60.7111 154.962 60.6348 155.381C60.5584 155.801 60.5788 156.232 60.6942 156.642L60.6944 156.642C60.8058 157.042 61.007 157.412 61.2827 157.722C61.5584 158.033 61.9013 158.277 62.2853 158.435L98.7619 173.59C99.3666 173.842 100.041 173.87 100.665 173.671C101.289 173.472 101.822 173.058 102.169 172.502C110.89 158.166 117.366 142.58 121.371 126.285C121.52 125.647 121.437 124.977 121.138 124.395C120.839 123.812 120.343 123.354 119.738 123.103L83.2617 107.948Z" fill="white"/>
<path d="M102.684 141.685L83.5425 133.732C82.8152 133.429 82.2378 132.849 81.9371 132.121C81.6364 131.393 81.6368 130.575 81.9383 129.847L82.3839 128.774C82.687 128.047 83.2663 127.47 83.9946 127.169C84.7229 126.868 85.5407 126.869 86.2687 127.17L105.41 135.123C106.137 135.426 106.715 136.006 107.016 136.734C107.316 137.462 107.316 138.28 107.014 139.008L106.569 140.08C106.266 140.808 105.686 141.385 104.958 141.686C104.23 141.987 103.412 141.986 102.684 141.685Z" fill="#651DFF"/>
<path d="M97.0534 155.237L77.912 147.284C77.1846 146.98 76.6073 146.401 76.3065 145.673C76.0058 144.945 76.0062 144.127 76.3078 143.399L76.7534 142.326C77.0565 141.599 77.6357 141.022 78.364 140.721C79.0923 140.42 79.9102 140.421 80.6382 140.722L99.7796 148.675C100.507 148.978 101.084 149.557 101.385 150.286C101.686 151.014 101.685 151.832 101.384 152.56L100.938 153.632C100.635 154.36 100.056 154.937 99.3275 155.238C98.5992 155.538 97.7813 155.538 97.0534 155.237Z" fill="#651DFF"/>
<path d="M110.354 122.639C110.067 122.639 109.784 122.583 109.518 122.475L90.2303 114.677C89.6827 114.455 89.2455 114.025 89.0148 113.481C88.784 112.937 88.7784 112.323 88.9992 111.775L90.4846 108.101C90.7063 107.553 91.1365 107.116 91.6808 106.885C92.225 106.654 92.8386 106.649 93.3867 106.87L112.674 114.668C113.222 114.89 113.659 115.321 113.89 115.865C114.121 116.409 114.126 117.022 113.906 117.57L112.42 121.244C112.253 121.656 111.968 122.008 111.6 122.257C111.232 122.505 110.798 122.638 110.354 122.639Z" fill="#CCCCCC"/>
<path d="M69.8438 239.5H0.495346C0.363972 239.5 0.237986 239.448 0.145091 239.355C0.0521953 239.262 0 239.136 0 239.005C0 238.873 0.0521953 238.747 0.145091 238.654C0.237986 238.562 0.363972 238.509 0.495346 238.509H69.8438C69.9752 238.509 70.1012 238.562 70.1941 238.654C70.287 238.747 70.3392 238.873 70.3392 239.005C70.3392 239.136 70.287 239.262 70.1941 239.355C70.1012 239.448 69.9752 239.5 69.8438 239.5Z" fill="#CCCCCC"/>
</g>
<defs>
<clipPath id="clip0">
<rect width="240.656" height="239.5" fill="white"/>
</clipPath>
</defs>
</svg>
